<?xml version="1.0" encoding="UTF-8"?>
<svg xmlns="http://www.w3.org/2000/svg" width="22" height="22" viewBox="0 0 24 24" fill="none" stroke="#9aa3b2" stroke-width="1.6" stroke-linecap="round" stroke-linejoin="round" shape-rendering="geometricPrecision"><path d="M13 4h7a1 1 0 0 1 1 1v3a1 1 0 0 1-1 1h-7a1 1 0 0 1-1-1V5a1 1 0 0 1 1-1z"></path><path d="M13 15h7a1 1 0 0 1 1 1v3a1 1 0 0 1-1 1h-7a1 1 0 0 1-1-1v-3a1 1 0 0 1 1-1z"></path><path d="M5 6v12c0 1 .9 2 2 2h5"></path><path d="M5 12h6"></path></svg>