<?xml version="1.0" encoding="UTF-8"?>
<svg xmlns="http://www.w3.org/2000/svg" width="22" height="22" viewBox="0 0 24 24" fill="none" stroke="#9aa3b2" stroke-width="1.6" stroke-linecap="round" stroke-linejoin="round" shape-rendering="geometricPrecision"><path d="M4.5 16.5c-1.5 1.5-2 6-2 6s4.5-.5 6-2c.83-.83.83-2.17 0-3-.83-.83-2.17-.83-3 0z"></path><path d="M12 15c-1-1-2-2.5-2-4 0-4 6-9 11-9 0 5-5 11-9 11-1.5 0-3-1-4-2z"></path><path d="M9 12 7 14 4 13l2-2c1-1 2-1.5 3-1z"></path><path d="M12 15l-1 3 2-2c1-1 1.5-2 1-3z"></path><circle cx="15" cy="9" r="1.25"></circle></svg>