<?xml version="1.0" encoding="UTF-8" standalone="no"?>
<!-- Created with Inkscape (http://www.inkscape.org/) -->

<svg
   version="1.1"
   id="svg1"
   width="2031.1427"
   height="1063.421"
   viewBox="0 0 2031.1427 1063.421"
   sodipodi:docname="Vegha_color.svg"
   inkscape:version="1.4 (86a8ad7, 2024-10-11)"
   xmlns:inkscape="http://www.inkscape.org/namespaces/inkscape"
   xmlns:sodipodi="http://sodipodi.sourceforge.net/DTD/sodipodi-0.dtd"
   xmlns="http://www.w3.org/2000/svg"
   xmlns:svg="http://www.w3.org/2000/svg">
  <defs
     id="defs1">
    <inkscape:path-effect
       effect="perspective-envelope"
       up_left_point="604.68134,234.23149"
       up_right_point="759.24011,234.23149"
       down_left_point="604.68134,1108.0043"
       down_right_point="759.24011,1108.0043"
       id="path-effect12"
       is_visible="true"
       lpeversion="1"
       deform_type="perspective"
       horizontal_mirror="false"
       vertical_mirror="false"
       overflow_perspective="false" />
    <inkscape:path-effect
       effect="perspective-envelope"
       up_left_point="520.02345,-43.421383"
       up_right_point="1132.5562,396.11152"
       down_left_point="520.02345,1070.6521"
       down_right_point="1210.3496,1070.6521"
       id="path-effect11"
       is_visible="true"
       lpeversion="1"
       deform_type="perspective"
       horizontal_mirror="false"
       vertical_mirror="false"
       overflow_perspective="false" />
    <inkscape:path-effect
       effect="perspective-envelope"
       up_left_point="520.02345,-43.421383"
       up_right_point="1132.5562,396.11152"
       down_left_point="520.02345,1070.6521"
       down_right_point="1210.3496,1070.6521"
       id="path-effect5"
       is_visible="true"
       lpeversion="1"
       deform_type="perspective"
       horizontal_mirror="false"
       vertical_mirror="false"
       overflow_perspective="false" />
  </defs>
  <sodipodi:namedview
     id="namedview1"
     pagecolor="#ffffff"
     bordercolor="#000000"
     borderopacity="0.25"
     inkscape:showpageshadow="2"
     inkscape:pageopacity="0.0"
     inkscape:pagecheckerboard="0"
     inkscape:deskcolor="#d1d1d1"
     inkscape:zoom="0.70710678"
     inkscape:cx="591.84837"
     inkscape:cy="418.60721"
     inkscape:window-width="3157"
     inkscape:window-height="2041"
     inkscape:window-x="1876"
     inkscape:window-y="0"
     inkscape:window-maximized="0"
     inkscape:current-layer="g1" />
  <g
     inkscape:groupmode="layer"
     inkscape:label="Image"
     id="g1"
     transform="translate(-593.11922,57.822257)">
    <path
       style="fill:#000000"
       d="M 1983.1924,663.2976 V 438.78638 h 41 41 l 0.106,78.75 c 0.058,43.3125 0.018,80.04553 -0.089,81.62896 l -0.1949,2.87896 6.0278,-7.00353 c 13.4851,-15.66814 34.5337,-27.13478 60.15,-32.7679 l 7.5,-1.64927 17.1688,-0.54256 17.1689,-0.54256 10.3311,1.7235 c 19.0997,3.18631 34.728,9.23587 49.4799,19.15322 l 8.3855,5.63733 8.1613,8.61693 c 18.7252,19.77059 28.1055,40.80558 33.4973,75.11692 l 1.8072,11.5 v 103 103 l -40.75,0.26122 -40.75,0.26121 0.064,-3.76121 c 0.035,-2.06867 -0.1638,-45.16122 -0.4427,-95.76122 l -0.5071,-92 -1.5838,-9 c -2.0069,-11.40406 -3.911,-17.34355 -8.175,-25.5 -5.4708,-10.46463 -15.9987,-20.39532 -25.3557,-23.91714 -1.925,-0.72454 -4.85,-1.90712 -6.5,-2.62795 -1.65,-0.72083 -6.8849,-1.8539 -11.633,-2.51793 l -8.633,-1.20733 -10.367,1.13928 -10.367,1.13928 -6.5,2.28608 c -12.3712,4.35101 -21.7419,10.70805 -29.3769,19.92922 -8.308,10.0338 -12.0955,18.21684 -15.865,34.27649 l -2.1125,9 -0.5728,94 -0.5728,94 -40.75,0.26122 -40.75,0.26121 z"
       id="path5" />
    <path
       style="fill:#000000"
       d="m 2437.1924,894.18095 c -1.925,-0.23262 -7.775,-1.11571 -13,-1.96242 l -9.5,-1.53949 -10.5,-3.49691 -10.5,-3.49692 -9.1543,-4.88512 c -11.6604,-6.22248 -19.3631,-12.09865 -27.9853,-21.34916 l -6.8604,-7.36025 -4.4393,-7.78577 c -5.5736,-9.77513 -10.6104,-23.08093 -12.147,-32.08869 l -1.1821,-6.92984 v -12 -12 l 1.699,-9 1.6991,-9 3.2717,-8.06423 c 5.7464,-14.16364 17.104,-28.43178 30.5907,-38.42995 l 6.8218,-5.05721 10.3431,-4.83769 c 15.3035,-7.15785 29.6378,-10.97101 51.6211,-13.73213 l 11.7219,-1.47227 46.0817,-0.59179 46.0817,-0.5918 -1.2888,-7.11146 c -1.8453,-10.18208 -3.1118,-14.26319 -6.7009,-21.59248 l -3.1737,-6.48101 -6.5,-6.56513 -6.5,-6.56513 -7.0451,-3.6507 c -3.8748,-2.00788 -10.4869,-4.59495 -14.6935,-5.74903 l -7.6485,-2.09833 -9.8065,-0.84405 c -5.3935,-0.46423 -11.6064,-0.70609 -13.8064,-0.53747 -2.2,0.16863 -7.825,0.5952 -12.5,0.94795 l -8.5,0.64136 -10,2.49051 c -18.8356,4.69105 -29.1545,9.41759 -47.4878,21.75179 l -11.3897,7.66271 -0.7472,-0.76123 c -0.411,-0.41868 -3.1014,-5.26123 -5.9789,-10.76123 -2.8774,-5.5 -8.3769,-15.625 -12.2211,-22.5 -7.6252,-13.63704 -12.5948,-23.13007 -12.6439,-24.15303 -0.048,-0.99702 19.5041,-14.03554 27.9686,-18.65124 22.4494,-12.24166 53.9616,-20.67981 87,-23.29638 l 14.5,-1.14837 15.1776,0.63443 15.1776,0.63443 11.8224,2.038 c 6.5023,1.1209 16.5474,3.37074 22.3224,4.99966 l 10.5,2.96167 10,4.91971 10,4.91972 8,5.89766 c 23.915,17.63034 38.2116,42.52162 45.6793,79.53088 l 2.2625,11.21286 0.3138,105.22603 0.3139,105.22603 -37.0855,0.27397 -37.0856,0.27397 -0.9492,-0.95 -0.9492,-0.95 -0.011,-18.05 -0.011,-18.05 -2.6584,3.5 c -1.4621,1.925 -5.47,6.29842 -8.9065,9.7187 l -6.248,6.2187 -8.342,5.43756 c -13.304,8.67196 -27.0508,13.9679 -44.4493,17.12405 l -8.8736,1.60969 -14,0.3544 c -7.7,0.19492 -15.575,0.16408 -17.5,-0.0685 z m 55.5,-63.85999 c 3.3,-0.91053 9.7852,-3.51174 14.4116,-5.78046 l 8.4116,-4.12494 6.3352,-5.92625 c 8.0129,-7.49564 12.7308,-13.91687 16.096,-21.90682 l 2.6517,-6.29611 0.5469,-21.81698 0.547,-21.81697 -43,0.36156 -43,0.36156 -9,2.76832 -9,2.76832 -4.6142,2.95422 c -6.1958,3.96677 -11.2811,9.03191 -14.3845,14.32749 l -2.5634,4.3741 -1.5062,7.22392 -1.5062,7.22391 1.061,7.63528 1.0611,7.63527 2.9348,6.27383 2.9348,6.27383 5.2914,5.22617 c 6.4129,6.33383 12.8417,9.90237 22.792,12.65144 l 7.4994,2.07194 15,-0.40356 15,-0.40357 z"
       id="path4" />
    <path
       style="fill:#000000"
       d="m 1389.1924,893.72441 c -43.1148,-4.7251 -80.7796,-21.60273 -107.0381,-47.96387 -10.908,-10.95063 -16.6423,-18.13506 -23.4507,-29.3813 -11.2062,-18.51061 -18.7308,-39.09388 -22.1508,-60.59286 l -1.8295,-11.5 0.094,-20.5 0.094,-20.5 2.0817,-11.5 2.0818,-11.5 3.9622,-12.15006 c 10.296,-31.57251 28.5067,-57.01886 54.7653,-76.5251 10.3639,-7.69886 24.7641,-16.12768 29.6472,-17.35325 1.5085,-0.37862 2.7428,-0.99138 2.7428,-1.36168 0,-0.37031 2.1375,-1.29785 4.75,-2.0612 2.6125,-0.76336 8.1171,-2.44994 12.2324,-3.74796 4.1154,-1.29802 12.4404,-3.28504 18.5,-4.41561 l 11.0176,-2.05559 16.5642,-0.5477 16.5643,-0.5477 9.9247,1.1705 c 34.2184,4.03559 60.9975,14.80633 84.9468,34.16614 30.177,24.3941 49.1686,62.54525 54.5252,109.53276 l 1.1518,10.10356 -0.3385,16.39644 -0.3385,16.39645 -0.809,1.25 -0.809,1.25 H 1438.022 1317.9697 l 0.6771,3.75 c 1.2739,7.05554 6.2861,20.19094 10.6668,27.95452 l 4.3787,7.75989 7.5,7.60448 c 15.4366,15.6516 31.4359,23.47369 55.1234,26.94994 l 8.6234,1.26553 14.3766,-0.55548 14.3766,-0.55547 8.4737,-2.21446 c 17.6336,-4.60821 33.8189,-13.44307 48.0145,-26.20895 4.1282,-3.7125 7.7869,-6.75 8.1304,-6.75 0.3435,0 6.1948,6.40009 13.003,14.22242 6.8081,7.82234 16.7809,19.09436 22.1617,25.04894 l 9.7832,10.82651 -2.0891,2.93388 c -3.0504,4.28389 -16.8746,16.57965 -25.8703,23.00994 -18.9142,13.52029 -42.6312,22.81035 -69.1071,27.06951 l -12.5,2.01086 -18,0.37376 -18,0.37375 z m 89.4489,-200.75149 c -2.4563,-14.65499 -8.1446,-27.98523 -16.1431,-37.83036 -10.9785,-13.51316 -22.3378,-21.50383 -37.8058,-26.59442 l -6,-1.97464 -15.5,-0.48335 -15.5,-0.48335 -7.1781,1.521 c -8.6387,1.83049 -17.405,5.26929 -24.9925,9.80397 l -5.6131,3.35461 -7.6081,7.54802 -7.6082,7.54803 -4.5962,7.95197 c -4.8868,8.45479 -8.2016,16.79039 -9.9227,24.95198 -0.58,2.75 -1.2975,5.80074 -1.5945,6.77943 l -0.5401,1.77943 80.6102,-0.0929 80.6101,-0.0929 z"
       id="path3" />
    <path
       style="fill:#000000"
       d="m 1735.1924,1005.1147 c -33.1163,-2.372 -66.746,-11.16422 -93.0133,-24.31774 -9.8579,-4.93639 -22.8502,-13.27148 -28.2541,-18.12609 l -3.7675,-3.38449 5.583,-10 c 6.7234,-12.04265 14.6577,-26.96118 20.4759,-38.5 2.3573,-4.675 5.1655,-9.4814 6.2404,-10.6809 l 1.9544,-2.1809 6.1406,4.78004 c 25.9072,20.16698 59.3552,32.16246 94.1406,33.76168 l 13,0.59766 10.5,-1.19343 c 5.775,-0.65639 14.2644,-2.07274 18.8654,-3.14744 l 8.3654,-1.95401 8.6346,-4.2137 8.6346,-4.21369 7.5951,-7.52766 7.5951,-7.52765 3.6148,-6.52437 c 1.9881,-3.58841 4.713,-9.44211 6.0553,-13.00823 l 2.4405,-6.48386 1.5793,-10.49177 1.5793,-10.49177 0.3945,-14.65206 0.3944,-14.65206 -5.9816,6.3944 c -15.4506,16.51667 -35.8578,27.61342 -61.6774,33.53798 l -8.5893,1.9709 -15.5443,0.5857 -15.5442,0.58569 -9.4558,-1.12769 c -5.2006,-0.62024 -14.6398,-2.44286 -20.9758,-4.05029 l -11.5202,-2.92258 -9.9798,-4.25871 c -27.675,-11.80975 -50.3,-31.67616 -67.0915,-58.91128 -9.1652,-14.86571 -17.594,-38.49794 -20.5082,-57.5 l -1.3802,-9 0.1064,-20 0.1065,-20 1.2283,-8 c 4.1723,-27.17555 17.0612,-56.78622 32.6459,-75 16.9523,-19.81225 31.5072,-30.60978 56.4129,-41.84994 5.0603,-2.28373 18.3167,-6.24085 27,-8.05962 39.6136,-8.29734 77.5701,-2.4362 106.4547,16.43842 8.5938,5.61565 19.0804,15.08688 23.7326,21.43475 l 2.9048,3.96361 -0.6935,-19.31345 -0.6935,-19.31346 1.3974,-0.88484 1.3975,-0.88484 37.691,-0.0153 37.691,-0.0153 0.6972,1.1282 0.6973,1.12821 -0.1815,147.12179 -0.1815,147.1218 -1.4816,11.5 c -10.3419,80.27348 -57.0789,123.74477 -141.8556,131.94359 -9.9856,0.9657 -34.5676,1.1732 -45.5763,0.3847 z m 44.7922,-204.91991 c 10.445,-2.1568 13.8659,-3.42838 22.9396,-8.5268 l 7.7682,-4.36484 8.0849,-8.00838 8.0849,-8.00839 3.7069,-6.37488 c 2.0388,-3.50618 3.4701,-6.61169 3.1806,-6.90112 -0.2894,-0.28944 0.091,-1.02074 0.8452,-1.62512 1.9997,-1.60234 5.3605,-12.24459 7.2183,-22.85726 l 1.6178,-9.24162 -0.6196,-12 c -0.589,-11.40596 -2.6231,-24.09388 -4.2913,-26.76661 -0.4234,-0.67836 -0.9044,-2.0987 -1.0689,-3.1563 -0.4486,-2.88478 -7.036,-15.46079 -10.7783,-20.57709 -11.7369,-16.04579 -34.4586,-29.67395 -52.4602,-31.46482 -2.3989,-0.23865 -6.7062,-0.72685 -9.5718,-1.08489 l -5.2103,-0.65098 -9.3691,1.20166 -9.3691,1.20165 -9.2239,2.9373 -9.224,2.93729 -7.4429,4.9781 -7.4428,4.9781 -7.1716,7.67922 -7.1715,7.67922 -4.263,8.55407 -4.263,8.55408 -2.1196,8 c -1.1658,4.4 -2.5624,11.93762 -3.1037,16.75026 l -0.9842,8.75025 0.5145,8.21683 c 1.8978,30.30735 14.3081,53.5352 36.7083,68.70555 6.9849,4.73052 17.1197,9.0842 24.635,10.58268 l 6.5524,1.3065 12.7922,0.094 12.7921,0.094 z"
       id="path2" />
    <path
       id="path6"
       style="fill:#e49e22;fill-opacity:1"
       d="m 1042.5873,523.93896 c 13.5973,123.57773 26.5488,247.22645 40.5489,370.7598 l 184.6917,-420.4773 c 2.557,-36.72682 -38.4943,-56.39265 -68.0706,-64.46253 -15.2751,29.16772 -1.4431,71.26738 -11.4561,105.25752 -6.8237,13.70876 -7.5279,-39.55803 -11.4309,-53.12915 -8.1537,-61.30642 -15.667,-122.9202 -31.027,-182.94266 -24.1179,29.26659 8.6421,80.90214 -22.3773,111.12659 2.0981,61.35862 3.5525,123.02422 -3.5662,184.13339 -17.8736,-132.80201 -29.5274,-266.74825 -58.7912,-397.74152 -18.2866,28.92748 -0.9403,64.38487 -6.7393,96.16145 -0.6934,23.44805 14.1834,58.75203 -14.5575,65.09653 -0.8249,42.91123 3.2414,86.83735 2.4116,130.51616 0.2464,18.56613 0.3811,37.1339 0.3639,55.70172 z"
       sodipodi:nodetypes="cccccccccccccc" />
    <path
       id="path13"
       style="fill:#d17c08;fill-opacity:1"
       d="M 965.2124,65.667608 C 944.50175,135.91334 964.29807,210.12409 959.6644,281.51417 915.78505,278.17949 940.39474,402.79 940.39474,402.79 l 1.84392,276.54087 140.80334,215.37443 c -4.5776,-122.32533 -27.1924,-248.78686 -40.4551,-370.78964 -0.5953,23.32594 -0.8191,109.91259 -3.4896,96.51834 -23.9887,-184.88975 -36.5609,-372.01339 -73.8849,-554.766392 z"
       sodipodi:nodetypes="cccccccc" />
    <path
       id="path11"
       style="fill:#10397b;fill-opacity:1"
       d="M 942.27928,679.39587 C 940.3389,550.61504 918.35701,423.32249 907.38689,295.21272 894.30525,174.33848 883.773,69.776538 864.39438,-50.274056 c -18.7673,0.792189 -13.27696,68.169394 -26.99597,96.770066 -29.54934,61.60292 10.28278,91.99992 11.93757,160.25923 -64.5434,-25.19661 -122.78345,-64.18004 -188.23595,-87.27159 -34.96804,2.97033 -30.97252,43.54906 -13.79607,63.7147 99.19232,164.83167 197.32847,330.42676 294.97532,496.19752 z"
       sodipodi:nodetypes="cccscccc" />
    <path
       style="fill:#10397b;fill-opacity:1"
       d="m 1983.1924,663.2976 c 0,-74.83707 0,-149.67415 0,-224.51122 27.3333,0 54.6667,0 82,0 -0.072,54.418 0.5173,108.85188 -0.1779,163.25792 18.6452,-24.48029 48.7418,-39.04483 79.0836,-41.59153 16.6525,-0.56169 33.4474,-2.1241 49.6576,2.91011 24.1803,5.8333 47.2314,18.62417 62.2265,38.80328 19.474,23.90071 27.0583,55.40548 28.7101,85.61047 0,66.50325 0,133.0065 0,199.50975 -27.1667,0.17415 -54.3333,0.34829 -81.5,0.52243 -0.2136,-64.18471 -0.3199,-128.42788 -1.0733,-192.58777 -2.4369,-24.03031 -13.5633,-50.47611 -38.2801,-58.66717 -14.6707,-6.3943 -30.9894,-5.27759 -46.1878,-2.0415 -26.7465,6.84705 -46.195,30.96325 -50.1954,57.88019 -3.4053,14.94691 -0.9721,30.58789 -1.8554,45.83462 -0.3028,49.6864 -0.6055,99.3728 -0.9083,149.0592 -27.1667,0.17415 -54.3333,0.34829 -81.5,0.52243 10e-5,-74.83707 3e-4,-149.67414 4e-4,-224.51121 z"
       id="path7" />
    <path
       style="fill:#10397b;fill-opacity:1"
       d="m 2437.1924,894.18095 c -13.6426,-1.40388 -26.961,-4.28158 -39.7476,-9.24605 -19.2452,-7.57897 -36.8979,-20.38325 -49.0734,-37.16106 -10.8502,-17.69319 -18.1588,-38.19395 -16.4474,-59.15446 -0.42,-10.36183 1.5943,-20.82111 4.735,-30.62813 9.2954,-25.3665 29.9817,-46.38841 55.4006,-55.62584 26.119,-10.54146 54.5701,-13.42411 82.5227,-12.99215 22.4245,-0.28798 44.849,-0.57597 67.2735,-0.86395 -2.5702,-15.21664 -5.7746,-32.12433 -18.2889,-42.38182 -8.9786,-10.48227 -23.218,-14.26549 -36.1473,-17.50768 -22.3214,-2.57367 -45.2548,-1.25052 -66.5153,6.41779 -16.9987,5.34291 -31.4483,15.98416 -46.0894,25.77124 -10.8066,-18.19942 -20.6682,-37.16302 -30.6671,-55.88773 4.9925,-11.49872 24.0013,-18.24324 35.8732,-25.34739 30.986,-13.59083 65.1572,-19.71429 98.889,-19.77646 15.9518,0.34099 31.8853,1.2495 47.3939,5.35628 12.7143,2.43563 24.9067,6.55066 36.1746,12.92636 28.627,14.7838 48.2575,43.69497 55.7673,74.67369 3.7092,13.24807 6.3563,26.74241 5.4361,40.53469 0.1933,64.81672 0.3866,129.63344 0.58,194.45016 -24.7237,0.18265 -49.4474,0.36529 -74.1711,0.54794 -3.9746,-3.69487 -0.9652,-10.28336 -1.9065,-15.23497 -0,-7.58835 -0.01,-15.17669 -0.014,-22.76503 -11.0312,15.54202 -26.5117,27.27903 -44.1394,34.42186 -18.2572,7.77088 -38.0799,10.24847 -57.7517,9.66655 -3.0292,-0.008 -6.0637,0.038 -9.0869,-0.19384 z m 55.5,-63.85999 c 11.0483,-4.00573 22.77,-8.02858 30.6227,-17.22514 9.6957,-9.58302 18.8654,-22.32373 17.5285,-36.58535 0.2828,-11.28602 0.5658,-22.57203 0.8488,-33.85804 -28.9366,0.41424 -57.9784,0.14775 -86.8497,0.98448 -10.8646,3.19998 -22.3183,5.87771 -30.1164,14.89494 -8.1313,6.89355 -10.3865,17.40597 -11.486,27.36452 0.9127,8.32701 1.906,16.63021 6.4412,23.88484 7.1669,12.6492 21.6401,19.52929 35.5098,22.58765 10.6649,0.62509 21.6534,-0.14148 32.3581,-0.62885 1.7143,-0.47302 3.4287,-0.94603 5.143,-1.41905 z"
       id="path8" />
    <path
       style="fill:#10397b;fill-opacity:1"
       d="m 1389.1924,893.72441 c -53.9252,-5.14873 -107.2758,-34.03125 -133.5431,-82.60498 -14.1893,-25.9952 -22.4351,-55.80591 -20.8403,-85.5245 -0.1943,-12.91273 -0.1842,-25.80664 3.0164,-38.40673 8.4367,-42.74419 34.839,-81.91851 72.6244,-104.1278 20.989,-13.07266 45.4904,-19.8679 69.9788,-22.56801 17.3239,-0.62446 34.7313,-1.96859 51.8091,2.03132 49.3189,7.5291 94.4985,40.73073 113.1041,87.48517 11.314,27.24054 16.5267,57.04415 14.5733,86.48735 -0.8887,4.34487 2.3302,13.92082 -4.6445,13.29015 -79.1003,0 -158.2006,0 -237.3009,0 3.0369,14.94343 8.5404,30.32472 18.3477,42.12603 16.0463,18.68646 39.1826,30.29918 63.697,32.43561 11.4285,1.3848 23.1241,-0.20183 34.5821,-0.62453 23.0664,-4.8107 44.1938,-16.57396 61.0685,-32.9543 11.3954,0.14632 19.9787,20.78516 30.229,28.80868 5.7383,6.48025 11.5666,12.87989 17.3648,19.30638 -25.5295,31.96506 -65.357,49.53923 -105.371,54.34926 -13.9133,1.4401 -28.0714,1.14116 -42.0535,1.21881 -2.214,-0.24264 -4.4279,-0.48527 -6.6419,-0.72791 z m 89.4489,-200.75149 c -4.4115,-32.17879 -30.3891,-61.27801 -62.7513,-66.48681 -15.1284,-0.0708 -30.6755,-2.94139 -45.0792,3.35247 -12.6691,3.76304 -23.221,11.53171 -31.8275,21.28692 -11.7402,11.87868 -17.0842,28.8478 -20.6757,44.83461 3.1512,2.04563 11.4183,0.29324 16.5538,0.86574 48.1326,-0.0555 96.2652,-0.11094 144.3978,-0.16641 -0.206,-1.22884 -0.4119,-2.45768 -0.6179,-3.68652 z"
       id="path9" />
    <path
       style="fill:#10397b;fill-opacity:1"
       d="m 1735.1924,1005.1147 c -44.4524,-3.8635 -90.7125,-15.95605 -125.0349,-45.82832 11.9152,-19.90661 21.0994,-41.49562 33.7782,-60.83121 10.0457,5.60896 21.0812,15.90436 32.924,20.69411 37.0071,17.87937 81.1312,23.50584 120.555,10.64793 9.1999,-4.0344 18.1282,-8.45114 24.4467,-16.54313 10.1826,-9.31421 15.9521,-23.06557 18.7915,-36.36681 3.1396,-15.12103 2.8235,-30.54752 3.2878,-45.90501 -20.9361,24.8494 -52.6842,40.62876 -85.1061,42.23704 -19.1818,1.73629 -38.4378,0.13976 -56.9582,-5.43019 -52.9526,-14.16022 -93.542,-61.76693 -103.4618,-115.18608 -4.5422,-18.81418 -2.1575,-38.28429 -2.3411,-57.41182 5.7344,-50.63594 35.9616,-99.37211 83.3766,-120.59735 50.8591,-23.64103 119.0902,-21.18081 159.4672,21.41864 7.0454,10.94685 8.2945,9.17243 6.9696,-1.87182 -0.3298,-9.18466 -0.6596,-18.36933 -0.9894,-27.55399 6.9966,-3.87461 16.0151,-0.78186 23.847,-1.77823 18.11,-0.007 36.2199,-0.0147 54.3299,-0.022 3.2079,6.98966 0.482,15.66096 1.3685,23.3085 -0.3002,91.79039 0.1474,183.62922 -0.6202,275.38935 -3.719,44.39262 -21.717,90.94874 -61.0215,115.40011 -37.5671,24.15033 -84.018,28.59993 -127.6088,26.23033 z m 44.7922,-204.91991 c 16.3209,-2.86585 31.2343,-11.46957 41.9415,-24.019 9.1581,-8.11434 12.927,-20.26464 17.314,-31.17433 6.384,-20.34884 4.5732,-42.56571 -1.7889,-62.63799 -12.4146,-37.35971 -54.9518,-59.73205 -92.8847,-51.87135 -11.957,2.22771 -23.8632,6.05198 -33.4489,13.81357 -7.4111,5.31317 -13.6302,12.66812 -19.0903,19.8559 -17.743,30.46028 -18.1747,70.63611 -0.1424,101.09173 14.2964,23.74705 42.0209,38.99997 69.8157,36.45541 6.2127,0.19328 12.2618,0.28473 18.284,-1.51394 z"
       id="path10" />
  </g>
</svg>
