<?xml version="1.0" encoding="UTF-8"?>
<svg width="24" height="24" xmlns="http://www.w3.org/2000/svg">
  <path
     d="m 20.992187,0.8125
c 0.675494,-0.007352 1.296532,0.3059751 1.705079,0.8027344
C 23.105813,2.1119937 23.30067,2.7771296 23.125,3.5 22.881329,4.5026895 22.054139,5.0843634 21.15625,5.1503906 20.778898,5.1781398 20.398121,5.109123 20.044922,4.9335937
L 19.546875,4.6875
l -7.21875,7.214844 0.25,0.5
c 0.305586,0.61345 0.286903,1.317962 0.0059,1.908203
C 12.30199,14.902805 11.786153,15.355777 11.046875,15.5 10.211219,15.663028 9.483255,15.351396 8.9960938,14.791016 8.5090947,14.230822 8.2995377,13.461109 8.5761719,12.654297 9.0294696,11.332238 10.490828,10.864213 11.597656,11.416016
l 0.5,0.25 7.212891,-7.212891 -0.25,-0.5
C 18.774519,3.381356 18.767266,2.7156298 19.003906,2.1445313 19.240546,1.5734327 19.709768,1.1037852 20.398437,0.90234375 20.603006,0.84250557 20.798916,0.81460351 20.992187,0.8125
Z

M 9.8535156,3.5917969
V 8.3652344
C 9.4435071,8.4305977 9.0648111,8.5398022 8.7148438,8.6835938
L 6.2460937,4.5839844
C 7.3147531,4.0435217 8.5161193,3.6967539 9.8535156,3.5917969
Z

m 1.9824224,0.039063
c 1.270524,0.1551857 2.484223,0.5514337 3.585937,1.171875
l -3.585937,3.5859375
z

m -8.6601567,3.375 3.3749999,3.3730466
C 6.0524386,11.063147 5.7486003,11.801178 5.625,12.589844
H 0.84960938
C 1.0159866,10.533418 1.7721161,8.6942806 3.1757813,7.0058594
Z

M 19.1875,8.5839844
c 0.659306,1.187026 1.053016,2.3757866 1.191406,3.5781246
h -4.769531
z

m -3.552734,5.5605466
h 4.77539
c -0.179261,2.176401 -0.922183,4.022797 -2.304687,5.601563
l -3.384766,-3.384766
c 0.476461,-0.649497 0.786055,-1.404584 0.914063,-2.216797
z

M 0.90820313,14.570313
H 5.7148437
c 0.024724,0.101028 0.05485,0.200939 0.085937,0.300781
L 1.65625,17.369141
C 1.3060181,16.579064 1.0510482,15.645825 0.90820313,14.570313
Z

M 5.6074219,17.296875 3.1640625,19.740234
C 2.9907022,19.535753 2.8191664,19.314562 2.6503906,19.078125
Z

m 6.9355471,0.742187 2.472656,4.103516
c -2.260397,1.124111 -4.829809,1.382767 -7.3886719,0.558594
L 9.4492188,18.28125
c 1.0732202,0.256483 2.1075602,0.15822 3.0937502,-0.242188
z

M 7.2285156,18.466797 5.8085937,21.912109
C 5.409927,21.685915 5.0057097,21.412923 4.5996094,21.095703
Z"
     style="fill-opacity:0;stroke:#000000;stroke-width:0.12;stroke-dasharray:none;stroke-opacity:1.5"
     />
</svg>
