<?xml version="1.0" encoding="UTF-8" standalone="no"?>
<svg
   width="24"
   height="24"
   viewBox="0 0 24 24"
   fill="none"
   stroke="currentColor"
   stroke-width="1.05"
   stroke-linecap="round"
   stroke-linejoin="round"
   shape-rendering="geometricPrecision"
   version="1.1"
   id="svg2"
   sodipodi:docname="workspace.svg"
   xml:space="preserve"
   inkscape:version="1.4 (86a8ad7, 2024-10-11)"
   xmlns:inkscape="http://www.inkscape.org/namespaces/inkscape"
   xmlns:sodipodi="http://sodipodi.sourceforge.net/DTD/sodipodi-0.dtd"
   xmlns="http://www.w3.org/2000/svg"
   xmlns:svg="http://www.w3.org/2000/svg"><defs
     id="defs2" /><sodipodi:namedview
     id="namedview2"
     pagecolor="#ffffff"
     bordercolor="#000000"
     borderopacity="0.25"
     inkscape:showpageshadow="2"
     inkscape:pageopacity="0.0"
     inkscape:pagecheckerboard="0"
     inkscape:deskcolor="#d1d1d1"
     inkscape:zoom="18.90625"
     inkscape:cx="7.2727273"
     inkscape:cy="7.6165289"
     inkscape:window-width="2977"
     inkscape:window-height="2041"
     inkscape:window-x="2125"
     inkscape:window-y="0"
     inkscape:window-maximized="0"
     inkscape:current-layer="svg2" /><path
     style="fill:#000000;stroke-width:0.0424684"
     d="m 2.0777999,21.829955 c 0.022303,-1.848409 1.339872,-3.316292 2.4770218,-4.638427 1.7716562,-1.662014 4.7568661,-2.059825 6.7180013,-0.500539 1.465647,1.03184 2.36859,2.635624 3.168076,4.197343 0.109625,1.253647 -1.230327,0.158245 -1.098139,-0.538785 -0.978241,-2.115638 -3.122521,-4.006771 -5.5872157,-3.72243 -2.4397432,0.298869 -4.1747444,2.427489 -5.014405,4.595241 -0.1459848,0.208606 -0.3059382,1.079688 -0.6633394,0.607597 z M 21.473933,18.27959 c -0.792816,-2.150585 -2.188978,-4.374114 -4.49213,-5.095604 -1.926478,-0.5909 -4.179184,0.254281 -5.269498,1.942683 -1.309726,-0.639261 0.569364,-1.955174 1.295017,-2.323145 1.966717,-1.142483 4.657041,-0.901623 6.278356,0.739768 1.265489,1.12892 2.162675,2.643604 2.625788,4.269519 0.06789,0.262286 -0.196132,0.476097 -0.437533,0.466779 z M 7.9850519,14.817164 C 6.0035298,14.362553 5.0724874,12.154006 5.1050338,10.288784 5.0579793,8.4434907 5.8812868,6.2362949 7.8152324,5.6836351 9.3599285,5.3813466 10.665452,6.7757787 11.042523,8.1572055 c 0.74434,2.1604815 0.341572,4.9462355 -1.6428875,6.3143805 -0.4160254,0.262696 -0.9195267,0.42804 -1.4145836,0.345578 z m 0.655067,-0.942755 C 10.622652,13.069803 11.168562,10.518494 10.524856,8.649469 10.247258,7.4247484 9.0088946,6.2248306 7.6831287,6.6756276 6.2279076,7.1086763 5.7780683,8.8067935 5.7202592,10.154532 c -0.060353,1.557805 0.756404,3.428534 2.4156583,3.766656 0.1691978,0.0108 0.339661,-0.0068 0.5042014,-0.04678 z m 6.5296721,-2.712947 c -2.0062,-0.717923 -2.784843,-3.0871583 -2.603086,-5.0490681 0.07846,-1.6841662 0.954615,-3.6151395 2.727373,-4.0512854 1.609536,-0.2576316 2.908159,1.2311993 3.252548,2.6713422 0.661707,2.1627275 0.203222,4.9529852 -1.850944,6.2083353 -0.460264,0.249986 -1.013311,0.352077 -1.525891,0.220676 z m 1.045792,-0.944939 C 18.245604,9.2134277 18.657815,6.4465339 17.758903,4.5384881 17.384702,3.0011729 15.104365,2.4002466 14.114389,3.6997235 13.126297,4.9099174 12.95778,6.6641719 13.386318,8.1299518 c 0.360777,1.1620429 1.478178,2.4775332 2.829265,2.0865712 z"
     id="path3" /></svg>
